<svg width="900" height="1400" viewBox="0 0 900 1400" fill="none" xmlns="http://www.w3.org/2000/svg">
  <defs>
    <linearGradient id="bg" x1="120" y1="60" x2="780" y2="1320" gradientUnits="userSpaceOnUse">
      <stop stop-color="#1A2A3A"/>
      <stop offset="1" stop-color="#09111B"/>
    </linearGradient>
    <linearGradient id="accent" x1="260" y1="420" x2="700" y2="900" gradientUnits="userSpaceOnUse">
      <stop stop-color="#F58A3A"/>
      <stop offset="1" stop-color="#D5542D"/>
    </linearGradient>
  </defs>

  <rect width="900" height="1400" fill="url(#bg)"/>

  <ellipse cx="170" cy="190" rx="160" ry="140" fill="#263A4D" fill-opacity="0.5"/>
  <ellipse cx="770" cy="300" rx="190" ry="160" fill="#2A4156" fill-opacity="0.42"/>
  <ellipse cx="720" cy="1240" rx="220" ry="160" fill="#25364A" fill-opacity="0.5"/>

  <rect x="158" y="364" width="420" height="690" rx="26" fill="#F3F7FB"/>
  <rect x="186" y="418" width="364" height="22" rx="11" fill="#C9D6E3"/>
  <rect x="186" y="468" width="314" height="20" rx="10" fill="#DAE4EE"/>
  <rect x="186" y="520" width="332" height="20" rx="10" fill="#DAE4EE"/>
  <rect x="186" y="572" width="280" height="20" rx="10" fill="#DAE4EE"/>
  <rect x="186" y="655" width="364" height="122" rx="16" fill="#E9F0F7"/>
  <rect x="186" y="805" width="214" height="80" rx="14" fill="url(#accent)"/>
  <rect x="420" y="805" width="130" height="80" rx="14" fill="#CFDCE8"/>

  <circle cx="640" cy="438" r="120" fill="url(#accent)"/>
  <path d="M608 426C608 407.222 623.222 392 642 392C660.778 392 676 407.222 676 426V444H608V426Z" fill="#fff"/>
  <rect x="598" y="444" width="86" height="128" rx="24" fill="#fff"/>
  <rect x="563" y="578" width="66" height="190" rx="28" fill="#F58A3A"/>
  <rect x="655" y="578" width="66" height="190" rx="28" fill="#F58A3A"/>
  <rect x="588" y="558" width="106" height="28" rx="14" fill="#E7EDF3"/>
  <rect x="548" y="748" width="44" height="188" rx="20" fill="#D5542D"/>
  <rect x="692" y="748" width="44" height="188" rx="20" fill="#D5542D"/>

  <rect x="482" y="968" width="320" height="26" rx="13" fill="#2F465C" fill-opacity="0.65"/>
  <rect x="432" y="1000" width="408" height="20" rx="10" fill="#213346" fill-opacity="0.72"/>
</svg>
